<svg xmlns="http://www.w3.org/2000/svg" version="1.1" xmlns:xlink="http://www.w3.org/1999/xlink" width="1000" height="1000"><g clip-path="url(#SvgjsClipPath1069)"><rect width="1000" height="1000" fill="#ffffff"></rect><g transform="matrix(1.2893982808022924,0,0,1.2893982808022924,135.7449856733524,49.99999999999994)"><svg xmlns="http://www.w3.org/2000/svg" version="1.1" xmlns:xlink="http://www.w3.org/1999/xlink" width="565" height="698"><svg xmlns="http://www.w3.org/2000/svg" viewBox="231 161 565 698">
	<path fill="none" d="M542 1025H1V1h1024v1024H542m91.34-839.818s-.327-.187-.575-.89c-5.507-3.426-11.295-5.276-18.43-3.208-.857.58-1.714 1.16-2.463 1.763 0 0-.04-.103-.615.112-.538.593-1.076 1.186-1.463 1.915 0 0 .095-.18-.514.003a4.38 4.38 0 01-1.108 1.168c-.205.215-.28.47-.84 1.213-.78 3.306-2.11 6.59-2.24 9.922-.356 9.235-.213 18.49-.127 27.791 0 0 .043-.144-.892-.007-18.676-.08-37.352-.16-55.965-.636 0 0-.185-.354-.08-1.283-.001-9.557.218-19.123-.14-28.667-.108-2.881-1.817-5.702-2.822-8.43 0 0 .124.003-.074-.548-.298-.226-.596-.452-.84-.51 0 0 .148-.097-.123-.64-.647-.473-1.293-.946-1.955-1.328 0 0 .09-.019-.291-.626-5.908-3.28-11.865-4.092-17.834-.34 0 0-.01-.083-.638.066-.83.643-1.658 1.287-2.94 2.024-.295.176-.435.437-.986 1.093-.645 1.052-1.289 2.105-1.976 3.571 0 0 .388.15-.35.463-.383 2.4-1.058 4.795-1.099 7.2-.163 9.543-.127 19.09.043 28.637 0 0 .006-.208-.93-.07-18.357.017-36.714.033-55.015.066 0 0 .023-.053-.361-.916-.126-9.824-.268-19.648-.37-29.473-.051-5.012-2.096-8.927-6.28-11.641 0 0 .089-.072-.326-.652-5.94-3.488-11.917-4.094-18.385-.14 0 0-.231.378-.75.707-5.301 4.298-6.245 10.22-6.316 16.55-.095 8.448-.352 16.894-.44 25.403 0 0-.004-.117-.908-.255-17.648-.18-35.295-.358-52.926-1.482-.021-8.443.356-16.914-.237-25.316-.286-4.039-2.404-7.948-3.718-11.832 0 0 .087.008-.088-.545-.293-.242-.585-.485-.939-1.14-.158-.273-.393-.391-.987-.86-.332-.183-.664-.365-.986-.456 0 0 .087-.027-.313-.62-6.419-3.763-12.746-4.368-18.797.577 0 0-.002-.12-.536.082-.218.302-.435.603-.502.898 0 0-.052-.141-.613.098-.504.62-1.009 1.24-1.412 1.893 0 0-.02-.104-.64.27-1.085 3.71-2.908 7.381-3.106 11.138-.469 8.877-.165 17.794-.116 26.678 0 0-.042-.043-.826.363-12.592.448-24.381 3.263-34.757 11.695-.31.165-.472.423-1.089 1.03-1.255 1.159-2.51 2.318-3.734 3.598 0 0 .08-.094-.455.1-.192.316-.384.631-.395.992 0 0-.066-.175-.602.036-.182.332-.364.664-.376.97 0 0-.111-.13-.706.2-.371 1.01-.742 2.02-1.77 3.25-1.78 2.544-3.562 5.088-6 7.923-4.489 7.322-6.646 15.35-7.388 24.222 0 0 .017.402-.602.64-1.231.85-2.462 1.702-3.52 2.72 0 0-.109-.214-.68-.017-.435.39-.871.78-1.212 1.193 0 0-.027-.095-.584.095-.659.66-1.318 1.319-2.241 2.467-.023.184-.046.368-.66.76-.819.926-1.638 1.852-3.093 2.963-1.419 1.282-2.837 2.565-4.589 4.138 0 0-.136.421.03.563 0 0 .096-.196-.476-.008-.17.36-.341.719-.364 1.068 0 0-.043-.143-.593.147-.262.54-.523 1.08-.646 1.78 0 0 .122-.173-.515-.142-.156.393-.313.787-.264 1.207 0 0-.01-.207-.54.015-.153.345-.305.69-.38 1.03 0 0-.021-.073-.526.281-.222.572-.443 1.143-.52 1.702 0 0-.038-.14-.592.183-.205.604-.41 1.207-.446 1.807 0 0-.04-.166-.636.23-.582 1.51-1.164 3.02-1.68 4.688 0 0 .165-.049-.5.238-3.963 9.042-4.382 18.602-4.378 28.285.041 112.575.007 225.151.038 337.727.01 37.468-.003 74.938.398 112.402.056 5.243 2.431 10.462 3.737 15.537 0 0-.152.033-.02.725.704 1.437 1.408 2.873 2.145 4.249 0 0-.069-.007.019.585.318.49.636.981.988 1.416 0 0-.066 0 .052.63.608.848 1.217 1.696 1.861 2.409 0 0-.14-.004.044.57.293.228.586.456.797.465 0 0-.193.13-.017.754.69.807 1.38 1.613 2.103 2.255 0 0-.167.024-.008.525.366.327.732.653 1.675 1.392 5.473 5.818 10.663 11.992 19.219 15.081 8.658 4.492 18.01 5.346 27.55 5.342 83.164-.03 166.327-.006 249.49-.072 43.996-.035 87.994-.038 131.985-.55 5.83-.068 11.627-3.068 17.288-4.735 0 0 .006.154.637.029.51-.33 1.022-.66 1.378-1.026 0 0-.002.16.62.018.5-.339 1.002-.677 1.365-1.048 0 0-.008.142.597 0 .491-.338.982-.676 1.397-1.039 0 0 .01.08.628-.073.832-.622 1.663-1.244 2.384-1.895 0 0-.005.115.555-.064.228-.294.457-.589.477-.833 0 0 .092.194.577.027.11-.128.222-.257.903-.504.536-.545 1.072-1.09 2.055-1.703.309-.145.459-.389.973-.977.216-.31.432-.62.473-.932 0 0 .027.173.557-.049.207-.313.414-.626.45-.951 0 0 .019.17.55-.047.208-.313.415-.626.452-.951 0 0 .02.17.546-.052.203-.315.406-.63.442-.963 0 0 .01.166.54-.058.213-.314.424-.628 1.172-1.13.414-.61.827-1.218 1.737-2.197.537-.87 1.074-1.741 1.526-2.626 0 0 .032.08.596-.279.842-1.56 1.685-3.122 2.42-4.706 0 0 .003.11.461-.127.122-.299.243-.598.59-1.251 0 0-.032-.42.546-.87 1.54-4.92 3.079-9.84 4.44-14.748 0 0 .048.172.653-.086.872-.63 1.743-1.259 3.153-1.866.382-.323.764-.646 1.754-1.154.831-.627 1.662-1.254 2.41-1.91 0 0 .013.087.587-.098.58-.539 1.159-1.077 1.6-1.614 0 0 .102.093.491-.038 0 0 .255-.323.91-.535.963-1.247 1.842-2.57 2.906-3.724 2.12-2.297 4.34-4.5 7.047-6.99.171-.343.343-.686.43-1.018 0 0 .023.082.546-.27.51-.905 1.02-1.81 1.45-2.722 0 0 .021.076.518-.29.212-.575.424-1.15.509-1.712 0 0 .031.124.57-.21.204-.597.406-1.193.452-1.78 0 0 .037.152.586-.181.2-.606.4-1.212 1.136-2.08.097-.581.194-1.162.849-2.223 1.255-8.312 3.568-16.619 3.6-24.935.29-76.29.195-152.58.191-228.872-.003-73.792.068-147.584-.196-221.375-.028-7.804-2.085-15.601-3.17-24.148-3.487-5.888-6.973-11.777-10.567-17.73 0 0-.05-.115-.36-.65-1.364-1.313-2.727-2.626-4.13-3.86 0 0 .072-.05-.248-.623-1.688-1.283-3.376-2.566-5.211-3.977 0 0-.165-.106-.57-.465-.758-.476-1.517-.952-2.434-1.56 0 0-.181-.1-.655-.476-.925-.358-1.85-.717-2.836-.966 0 0 .11-.058-.24-.684l-26.422-8.556c0-7.868.432-17.005-.2-26.069-.275-3.948-2.734-7.744-4.31-11.94 0 0-.31-.16-.387-.149 0 0-.065.043-.335-.56-1.37-.718-2.74-1.437-4.122-2.046 0 0 .11-.017-.238-.665-5.09-2.205-10.091-2.431-14.862.69 0 0-.013-.085-.702.003-1.24 1.23-2.48 2.46-3.608 3.829 0 0 .074-.162-.475.035-.15.358-.298.717-.294 1.087 0 0-.04-.147-.664.274-.74 3.318-1.99 6.616-2.123 9.959-.367 9.228-.266 18.475-.19 27.748 0 0-.016-.164-.47-.052 0 0-.417.207-1.34.03-15.694-.028-31.388-.055-47.035.101 0 0 .179-.063.005-.973-.014-9.382.2-18.773-.173-28.14-.121-3.06-1.77-6.06-2.761-8.932 0 0 .16-.004-.025-.598-.306-.212-.612-.424-.684-.551 0 0 .076-.238-.064-.587z"></path>
	<path fill="#2B2BB1" d="M284.067 832.798c-7.891-2.78-13.081-8.955-18.904-15.247-.727-.79-1.106-1.104-1.484-1.42 0 0 .167-.023.2-.308-.75-1.055-1.53-1.825-2.312-2.595 0 0 .193-.129.178-.316-.332-.41-.649-.63-.965-.852 0 0 .14.004.161-.303-.652-1.115-1.326-1.923-2-2.732 0 0 .065 0-.004-.282-.382-.763-.694-1.244-1.007-1.726 0 0 .069.007.038-.35-.769-1.765-1.507-3.174-2.246-4.584 0 0 .152-.033.193-.386-.948-7.713-2.793-15.07-2.802-22.43-.168-149.021-.13-298.042-.096-447.063 0-2.63.302-5.286.73-7.886.905-5.517 1.987-11.006 2.997-16.506 0 0-.165.05.18-.075.873-1.736 1.402-3.348 1.932-4.96 0 0 .04.166.27.038.41-.752.59-1.377.77-2.001 0 0 .036.14.263.014.417-.728.608-1.33.799-1.931 0 0 .02.073.247-.036.379-.454.531-.798.683-1.143 0 0 .011.207.202.107.364-.446.537-.792.71-1.138 0 0-.122.173.16.063.491-.727.703-1.343.914-1.96 0 0 .043.143.253.041.381-.452.553-.803.726-1.154 0 0-.096.196.034.146.264-.08.396-.112.53-.144l-.357-.66c1.419-1.282 2.837-2.565 4.943-3.967 1.457-1.097 2.227-2.074 2.997-3.05.023-.185.046-.369.542-.81 1.09-.97 1.708-1.685 2.325-2.4 0 0 .027.095.331.107.696-.46 1.087-.93 1.48-1.402 0 0 .107.215.41.275 1.48-.967 2.659-1.993 3.837-3.019 0 0-.017-.402.413-.627 1.25-2.825 2.107-5.414 2.88-8.027 1.602-5.413 3.16-10.84 4.734-16.26 1.782-2.545 3.563-5.089 6.036-7.823 1.018-1.258 1.345-2.324 1.673-3.39 0 0 .11.13.343.093.382-.406.531-.775.68-1.144 0 0 .066.175.3.135.388-.409.542-.777.696-1.146 0 0-.08.094.276.16 1.565-1.263 2.772-2.591 3.98-3.92.015-.35.177-.609 1.115-.807 5.878-2.197 11.012-4.734 16.413-6.408 4.579-1.419 9.447-1.982 14.227-2.638 2.12-.291 4.544.424 4.273-3.022 0 0 .042.043.339-.216 1.491-12.807-.769-25.652 3.544-37.931 0 0 .02.104.333.11.763-.71 1.212-1.424 1.661-2.138 0 0 .052.141.263.07.415-.391.62-.71.825-1.03 0 0 .002.121.355.148 5.528-1.407 10.67-3.416 15.926-.067.7.446 1.932.058 2.918.056 0 0-.087.027.025.252.46.396.807.566 1.154.736.314-.036.55.082.821.845.41.727.705.965 1 1.203 0 0-.087-.008-.09.372.338 2.162.904 3.935.98 5.729.4 9.45.605 18.91 1.073 28.356.073 1.47 1.156 2.889 1.876 4.743 1.065.882 2.024 1.756 2.988 1.761 15.957.085 31.915.102 47.872-.035 1.005-.009 2-1.412 2.999-2.166 0 0 .004.117.387.14 1.182-1.275 2.62-2.55 2.672-3.877.243-6.294.229-12.605.074-18.904-.148-6.036-.167-11.938 4.14-16.892.435-.5.024-1.737.006-2.632 0 0 .23-.378.637-.133 1.107.582 1.84 1.262 2.503 1.2 3.173-.3 6.317-.966 9.493-1.172 2.114-.138 4.264.279 6.398.447 0 0-.089.072-.097.404 2.81 6.026 4.559 11.846 4.073 18.405-.479 6.455-.071 12.974-.124 19.464-.018 2.206.105 4.116 3.093 3.776 0 0-.023.053.226.36 18.053.427 35.857.56 53.662.616.679.002 1.36-.734 2.04-1.127 0 0-.006.208.242-.042.681-12.133 1.114-24.016 1.546-35.9 0 0-.388-.15.011-.173.981-1.303 1.563-2.582 2.145-3.86-.017-.344.123-.605 1.02-.804 1.39-.733 2.178-1.441 2.966-2.15 0 0 .01.083.408.089 6.204.318 12.01.63 17.817.941 0 0-.09.02-.084.335.744.729 1.482 1.142 2.22 1.555 0 0-.148.097-.098.3.362.422.675.64.988.858 0 0-.124-.004-.141.35.635 10.896 1.26 21.442 1.967 31.981.128 1.91.596 3.795.907 5.692 0 0 .185.354.374.917.978.746 1.766 1.088 2.554 1.09 16.877.03 33.753.047 50.63-.027 1.177-.005 2.351-.734 3.527-1.127 0 0-.043.144.302.075.785-1.363 1.564-2.644 1.612-3.952.416-11.378.7-22.762 1.023-34.143-.054-.293.022-.547.73-.924.74-.505.977-.847 1.214-1.19 0 0-.095.181.201.161.778-.717 1.26-1.413 1.742-2.11 0 0 .04.103.346.158 1.137-.557 1.968-1.17 2.8-1.782 6.492-2.104 12.28-.254 17.743 3.651.224.573.492.667.76.76 0 0-.076.238-.136.494.27.467.6.678.93.89 0 0-.161.003-.195.366.303 3.794.867 7.22.933 10.656.147 7.614-.064 15.235.14 22.846.036 1.39 1.346 2.745 2.069 4.117 0 0-.179.063.04.33 1.675.43 3.132.733 4.589.736 14.38.027 28.76.005 43.382-.127.374-.455.507-.787.639-1.119 0 0 .017.164.358.131.809-1.643 1.63-3.24 1.687-4.865.392-11.074.624-22.153.907-33.23 0 0 .041.147.26.052.354-.46.489-.824.624-1.189 0 0-.074.162.24.116 1.537-1.321 2.76-2.596 3.983-3.87 0 0 .013.085.41.097 5.202-.01 10.007-.033 14.813-.055 0 0-.11.017-.008.296 1.497.976 2.894 1.673 4.29 2.37 0 0 .065-.043-.018.23.136.571.354.87.58 1.572.674 6.106 1.59 11.795 1.938 17.518.332 5.454.128 10.946.05 16.42-.044 3.007.81 5.004 4.108 5.765 6.042 1.394 11.995 3.165 18.017 4.647 2.307.567 4.703.774 7.058 1.145 0 0-.11.058-.06.395 1.12.56 2.19.783 3.261 1.005 0 0 .181.1.09.547.916.79 1.923 1.13 2.93 1.472 0 0 .165.106.065.513 1.81 1.652 3.72 2.897 5.63 4.143 0 0-.071.05-.067.394.39 2.883 1.222 4.89 4.435 4.051 0 0 .051.115-.072.518 3.12 6.296 6.365 12.188 9.664 18.468.994 5.491 1.932 10.593 2.589 15.99-.4 1.774-.62 3.255-.62 4.737-.015 151.217-.017 302.435.025 453.653 0 1.733.594 3.466.927 5.547-.001.811-.019 1.275-.189 1.816-.21.175-.341.324-.315.36.126.173.294.315.435.87-.944 5.5-1.877 10.597-2.81 15.695-.096.582-.193 1.163-.868 2.012-.754.893-.93 1.52-1.108 2.145 0 0-.036-.153-.265-.024-.407.748-.584 1.367-.762 1.986 0 0-.031-.124-.261.007-.412.736-.594 1.342-.776 1.947 0 0-.021-.076-.346-.056-.765 1.031-1.207 2.042-1.648 3.054 0 0-.024-.082-.247.034-.393.46-.564.805-.734 1.15-2.179 2.242-4.4 4.445-6.519 6.742-1.064 1.154-1.943 2.477-3.357 3.664-.583.202-.716.464-.848.726 0 0-.102-.093-.398-.17-.823.574-1.35 1.225-1.878 1.876 0 0-.013-.086-.348-.095-1.118.696-1.9 1.4-2.683 2.103-.382.323-.764.646-1.81.925-1.474.694-2.284 1.431-3.094 2.168 0 0-.048-.172-.304-.03-1.758 5.114-3.26 10.085-4.762 15.057 0 0 .032.419-.284.727-.524.566-.663.857-.732 1.18 0 0-.002-.11-.316-.096-1.1 1.692-1.885 3.372-2.67 5.051 0 0-.033-.08-.352-.063-.781 1.004-1.243 1.991-1.704 2.978-.413.61-.826 1.219-1.785 2.021-.75.516-.953.839-1.158 1.161 0 0-.009-.166-.207-.068-.39.428-.58.757-.77 1.087 0 0-.02-.17-.219-.078-.393.42-.589.748-.784 1.076 0 0-.02-.17-.217-.077-.393.422-.587.751-.782 1.08 0 0-.027-.173-.223-.078-.398.424-.6.754-.8 1.084.009.341-.141.585-1.01.77-1.058.417-1.558.794-2.31 1.252-.358.415-.466.749-.573 1.082 0 0-.092-.194-.276-.148-.407.353-.63.66-.853.966 0 0 .005-.115-.314-.123-1.106.68-1.894 1.368-2.683 2.056 0 0-.01-.08-.298-.043-.763.406-1.239.775-1.714 1.144 0 0 .008-.142-.263-.13-.753.402-1.234.79-1.716 1.178 0 0 .002-.16-.264-.164-.758.382-1.25.768-1.743 1.155 0 0-.006-.154-.351-.177-2.084.333-3.815.725-5.562 1.035-5.396.96-10.798 1.888-16.49 2.542-1.773-.405-3.254-.63-4.734-.63-124.876-.016-249.752-.018-374.628.024-1.738 0-3.476.572-5.624.893-5.915-1.489-11.41-3.035-16.938-4.454-.805-.207-1.767.198-2.657.32m25.119-562.35l-.488.05c.222.218.444.436.605 1.297-.138.408-.276.815-1.168 1.376-.708 3.467-2.033 6.933-2.035 10.4-.104 151.2-.117 302.398.034 453.597.004 4.62 1.852 9.238 2.852 14.549 1.017 1.401 2.035 2.802 3.503 4.482.148.097.295.194.517.927 1.846 1.983 3.692 3.967 5.818 6.563.725.768 1.45 1.535 2.498 2.808.562.163 1.125.326 1.95 1.143 3.931 5.107 9.74 5.287 15.285 5.291 127.574.082 255.147.063 382.72.057 1.498 0 3.166.34 4.454-.197 2.213-.924 4.189-2.415 6.968-3.83 3.861-3.388 8.158-6.398 11.487-10.245 5.94-6.862 6.012-15.428 6.008-24.041-.068-149.53-.004-299.058-.178-448.587-.007-6.643-1.997-13.285-3.107-20.59-.375-.481-.749-.962-.994-1.44 0 0-.035.124.008-.573-.467-.402-.934-.803-1.226-1.226 0 0-.098.147.088-.6-.692-.525-1.384-1.05-2.58-1.74-.43-.54-.862-1.079-1.29-2.37-.996-.504-1.99-1.009-2.937-1.555 0 0-.007.064-.063-.661-.758-.23-1.516-.46-2.43-.746 0 0-.154-.063.19-.807-5.075-3.928-10.626-4.923-16.87-2.61 0 0-.14-.147-.95.228-.986 14.518-1.973 29.035-3.04 44.181-.94.802-1.88 1.605-3.23 1.885-6.166 2.766-12.456 1.96-18.67.628 0 0-.023.09.036-.584-.665-1.147-1.33-2.294-2.18-3.911-.268-.194-.536-.387-1.425-.617-.414.013-.828.027-1.396-.41l.043-1.068c.016-.197.03-.394.486-.71.254-.188.419-.437.507-1.69.003-10.954.014-21.909.006-32.864-.005-5.779-1.03-7.108-6.839-7.175-13.94-.16-27.885-.122-41.825.078-1.112.016-2.197 1.902-3.332 2.902 0 0 .01-.04-.785.12-.388 1.18-1.107 2.359-1.113 3.54-.062 12.492-.01 24.983 0 37.375 0 0 .096.028-.66.029a60.44 60.44 0 00-1.474 3.539c-.172.286-.425.423-1.554.35-5.609 2.87-11.583 2.74-17.483 2.127 0 0-.025.13-.196-.438-.35-.12-.702-.24-1.13-.208 0 0-.172-.012.028-.718-1.278-.878-2.555-1.756-3.736-2.662 0 0-.018.099.075-.725-.661-5.344-1.668-10.673-1.9-16.035-.33-7.606.01-15.24-.175-22.855-.036-1.466-1.168-2.905-2.028-5.156-.976-.441-1.95-1.262-2.928-1.267-16.309-.08-32.619-.122-48.925.06-1.375.016-2.73 1.69-4.332 3.544.068 9.426.02 18.854.24 28.276.163 6.918-1.289 12.986-8.254 17.099-5.61.352-11.22.704-16.713 1.038 0 0-.008.119-.19-.567a73.23 73.23 0 00-3.523-1.623c-.421-.596-.842-1.192-1.288-2.526-.479-.661-.957-1.322-1.38-2.242 0 0 .265 0 .364-.863-.308-11.376-.58-22.754-.964-34.128-.058-1.718-.631-3.418-.974-5.129 0 0 .005-.01-.19-.587-1.266-.448-2.531-.896-4.735-1.383-15.687.014-31.374.028-47.82.006-.76.007-1.519.013-2.717.2-.277.186-.455.442-1.313.876-.712.992-2.019 1.968-2.046 2.978-.356 13.393-.533 26.79-.655 40.336 0 0-.037.176-.759-.156-1.214.725-2.351 1.663-3.657 2.133-3.409 1.228-6.83 2.757-10.365 3.185-2.527.306-5.247-.973-8.424-1.671-.464-.559-.927-1.117-1.314-2.524-.686-7-1.608-13.987-1.987-21.003-.338-6.257.128-12.559-.222-18.815-.086-1.528-1.977-2.955-2.864-4.513 0 0 .06.183-.407-.54-.466-.153-.93-.437-1.396-.438-16.384-.04-32.77-.076-49.153-.017-.99.004-1.976.789-2.873.998 0 0 .199.116-.647.134-.478 1.763-1.238 3.501-1.39 5.292-1.068 12.568 2.366 25.46-2.707 37.755-.057.14.373.48.507 1.29-.573.47-1.145.94-2.515 1.46-6.688 3.35-13.542 3.49-21.067.927-.448-.564-.895-1.127-1.51-2.226-.284-.223-.569-.446-.78-.673 0 0-.034.065-.021-.783-.651-12.37-1.273-24.74-1.988-37.106-.1-1.722-.663-3.418-.973-5.117 0 0-.027.029-.261-.736-4.695-2.479-12.272-1.215-16.13 2.775 0 0-.427 0-1.2-.046-.783.754-1.567 1.508-2.603 2.763-.61.41-1.22.819-2.447 1.31-.468.592-.936 1.183-1.398 1.89 0 0-.115-.007-.555.066-.156.311-.313.623-.641 1.522-.545.83-1.09 1.66-1.887 2.896 0 0-.105.466.04.442 0 0-.059-.134-.464-.026 0 0-.392.146-1.088.436-.424 1.12-.847 2.238-1.187 3.528 0 0-.127.142-.623.413-.041.352-.082.704.07 1.266 0 0-.076.275-.45-.068m392.267 540.454c.457-.362.914-.724 2.067-1.011.813-.697 1.626-1.395 2.733-2.653 1.6-1.563 3.202-3.125 5.327-5.078.225-.368.451-.737 1.214-1.397.502-.87 1.005-1.74 2.034-3.053.061-.6.122-1.2-.422-2.377-15.887-.101-31.775-.212-47.662-.268-.567-.002-1.136.543-2.589 1-2.399-.056-4.797-.113-7.783-.753-.649-.108-1.297-.31-1.946-.311-25.231-.019-50.463-.032-75.694.018-1.232.002-2.462.574-4.499 1.046-1.091-.057-2.183-.114-3.86-.757-5.09-.11-10.182-.368-15.268-.281-4.025.069-8.042.56-12.87 1.03-1.092-.055-2.185-.11-3.804-.723-2.463.186-4.926.371-8.246.723-1.742-.054-3.484-.11-5.814-.747-11.713-.108-23.425-.232-35.138-.284-.73-.003-1.46.563-3.113 1.03-4.388-.055-8.775-.11-13.75-.747-8.443.195-16.886.39-26.016.75-.465-.056-.93-.11-1.983-.749-.649-.108-1.297-.312-1.946-.312-26.564-.017-53.127-.028-79.69.022-1.233.003-2.463.573-4.551 1.047-1.742-.056-3.483-.113-5.808-.75-4.778.19-9.556.381-15.094.73-.77-.058-1.541-.116-2.462-.931-5.07-.79-10.142-1.579-15.2-2.507 0 0 .089-.108.076-.762a54.023 54.023 0 00-3.13-.003c-.17-.017-.341-.033-.53.067 0 0 .118-.009-.236-.519-.591-.181-1.182-.362-1.765-.44 0 0 .1-.028-.253-.536-.581-.2-1.163-.4-1.736-.483 0 0 .113-.034-.226-.556-.584-.203-1.168-.405-1.77-.459 0 0 .15-.011-.038-.531a9.722 9.722 0 00-1.006-.38s.034-.023-.339-.486c-.542-.235-1.085-.47-1.598-.586 0 0 .108-.054-.119-.512-.3-.15-.599-.3-1.252-1.008-.902-.461-1.805-.923-2.52-1.963-3.178-3.46-6.356-6.919-9.928-10.538-.215-.215-.31-.475-.307-1.436-.378-.477-.756-.954-1-1.44 0 0-.011.135-.155-.392a19.42 19.42 0 00-1.313-.909c-.175-.503-.35-1.005-.675-1.972-.112-.328-.326-.563-.88-1.017 0 0 0-.393.01-1.103-.367-.542-.733-1.084-.986-1.619 0 0-.026.11.034-.72-6.945-20.6-3.35-41.886-3.872-62.874-.523-20.984-.108-41.99-.112-62.988-.02-101.485-.041-202.97-.023-305.389v-19.68c-4.109.736-5.257 2.674-4.448 5.81 0 0 .054.193-.725.237-.633 3.515-1.266 7.03-1.72 11.298-.057.767-.114 1.534-.96 2.458-.368 1.69-1.057 3.381-1.058 5.072-.05 147.757-.067 295.513.04 443.27.004 4.228 1.255 8.48 2.19 12.66.167.751 1.636 1.211 2.781 2.458.627 1.463 1.253 2.926 1.382 4.754 2.628 2.51 5.255 5.02 8.314 7.594 0 0 .3.317.447.957.722.327 1.445.653 2.751 1 .706.278 1.411.555 2.642 1.052.46.324.92.648 1.634 1.474.351.088.703.175 1.178-.025 0 0 .31-.049.252.69 4.61.94 9.217 2.696 13.828 2.701 124.386.151 248.773.153 373.159-.004 4.428-.006 8.854-1.89 13.915-2.887.41-.394.82-.789 1.88-1.042z"></path>
	<path fill="#03039D" d="M771.367 761.804c.653-4.858 1.586-9.955 2.55-15.68.033-.629.013-1.083.013-1.083.017-.463.035-.927.053-2.201.004-92.136.017-183.461.007-274.787-.008-62.994-.048-125.988-.074-188.981-.939-5.103-1.877-10.205-2.608-15.71.382-.395.558-.387.733-.38 1.115 7.8 3.172 15.597 3.2 23.401.264 73.791.193 147.583.196 221.375.004 76.291.1 152.582-.191 228.872-.032 8.316-2.345 16.623-3.88 25.174zM688.94 836.931c5.4-.94 10.802-1.868 16.198-2.828 1.747-.31 3.478-.702 5.638-1.023-5.392 1.678-11.189 4.678-17.019 4.746-43.991.512-87.989.515-131.984.55-83.164.066-166.327.042-249.49.072-9.54.004-18.893-.85-27.884-5.496.558-.276 1.52-.68 2.325-.474 5.528 1.419 11.023 2.965 17.398 4.48 28.366.017 55.862.037 83.359.033 100.486-.016 200.973-.04 301.46-.06zM256.411 307.955c-.677 5.357-1.759 10.846-2.665 16.363-.427 2.6-.728 5.256-.729 7.886-.034 149.02-.072 298.042.096 447.062.009 7.36 1.854 14.718 2.8 22.508-1.345-4.8-3.72-10.018-3.776-15.26-.401-37.465-.388-74.935-.398-112.403-.03-112.576.003-225.152-.038-337.727-.004-9.683.415-19.243 4.71-28.429z"></path>
	<path fill="#2525AD" d="M744.995 231.557c-2.18-.058-4.577-.265-6.884-.832-6.022-1.482-11.975-3.253-18.017-4.647-3.299-.761-4.152-2.758-4.108-5.765.078-5.474.282-10.966-.05-16.42-.348-5.723-1.264-11.412-1.95-17.759-.017-.643.011-1.124.011-1.124 1.467 3.865 3.926 7.661 4.201 11.61.632 9.063.2 18.2.2 26.068 9.474 3.068 17.948 5.812 26.597 8.869zM426.374 224.658c-.548.823-1.542 2.226-2.547 2.235-15.957.137-31.915.12-47.872.035-.964-.005-1.923-.88-2.973-1.938-.088-.588-.002-.939-.002-.939 17.647.18 35.294.359 53.394.607zM459.889 224.522c-2.796.77-2.92-1.139-2.901-3.345.053-6.49-.355-13.009.124-19.464.486-6.56-1.263-12.38-4.052-18.458 4.171 2.435 6.216 6.35 6.267 11.362.102 9.825.244 19.649.562 29.905zM433.845 182.726c.278.73.689 1.968.253 2.468-4.306 4.954-4.287 10.856-4.14 16.892.156 6.3.17 12.61-.073 18.904-.052 1.328-1.49 2.602-2.722 3.846-.245-8.5.012-16.947.107-25.396.071-6.33 1.015-12.25 6.575-16.714z"></path>
	<path fill="#0E0EAB" d="M339.572 224.132c.663 3.243-1.762 2.528-3.881 2.819-4.78.656-9.648 1.22-14.227 2.638-5.401 1.674-10.535 4.211-16.177 6.376 9.512-8.367 21.3-11.182 34.285-11.833z"></path>
	<path fill="#090BA6" d="M372.988 223.58c-.008.471-.094.822-.11.998-.631-1.265-1.714-2.685-1.787-4.154-.468-9.447-.672-18.906-1.073-28.356-.076-1.794-.642-3.567-.967-5.771 1.304 3.546 3.422 7.455 3.708 11.494.593 8.402.216 16.873.229 25.788zM688.512 186.966c.029 10.867-.203 21.946-.595 33.02-.058 1.625-.878 3.222-1.768 4.849-.337-9.224-.438-18.47-.071-27.7.132-3.342 1.382-6.64 2.434-10.169z"></path>
	<path fill="#03039D" d="M637.135 224.445c-.636-.917-1.946-2.272-1.983-3.662-.203-7.61.008-15.232-.139-22.846-.066-3.436-.63-6.862-.913-10.734 1.004 2.587 2.654 5.586 2.775 8.646.373 9.368.159 18.759.26 28.596z"></path>
	<path fill="#090BA6" d="M607.64 187.032c-.018 11.156-.302 22.54-.718 33.918-.048 1.308-.827 2.589-1.682 3.924-.36-9.205-.504-18.46-.147-27.694.128-3.331 1.458-6.616 2.546-10.148z"></path>
	<path fill="#03039D" d="M604.54 224.896c-.708.324-1.882 1.053-3.06 1.058-16.876.074-33.752.058-50.629.027-.788-.002-1.576-.344-2.585-.892 18.455-.286 37.131-.205 56.275-.193zM515.54 224.871c-.211.324-.892 1.06-1.571 1.058-17.805-.056-35.609-.19-53.69-.624 18.08-.332 36.437-.348 55.262-.434z"></path>
	<path fill="#0E0EAB" d="M289.624 253.984c-1.247 5.275-2.804 10.702-4.405 16.115-.774 2.613-1.631 5.202-2.797 7.844.228-8.464 2.385-16.492 7.202-23.96z"></path>
	<path fill="#03039D" d="M684.99 225.962c-14.38.009-28.76.031-43.14.004-1.456-.003-2.913-.307-4.612-.828 15.452-.33 31.146-.304 47.302.043.46.32.45.781.45.781z"></path>
	<path fill="#2525AD" d="M452.928 182.614c-1.926.122-4.076-.295-6.19-.157-3.176.206-6.32.872-9.493 1.172-.663.062-1.396-.618-2.287-1.251 5.846-4.148 11.824-3.542 17.97.236z"></path>
	<path fill="#090BA6" d="M343.537 185.969c-4.003 12.092-1.743 24.937-3.263 37.753-.317-8.634-.62-17.551-.152-26.428.198-3.757 2.021-7.428 3.415-11.325z"></path>
	<path fill="#2525AD" d="M772.055 262.608c-.19.367-.365.36-.802.366-3.507-5.878-6.751-11.77-9.819-18.033 3.664 5.517 7.15 11.406 10.621 17.667z"></path>
	<path fill="#03039D" d="M547.976 223.51c-.364-1.433-.832-3.319-.96-5.228-.708-10.54-1.332-21.085-1.953-32.041 1.008 2.435 2.717 5.256 2.825 8.137.358 9.544.139 19.11.088 29.131z"></path>
	<path fill="#0605A2" d="M517.428 189.017c-.063 11.727-.496 23.61-1.28 35.742-.315-9.297-.35-18.843-.188-28.385.041-2.406.716-4.8 1.468-7.357z"></path>
	<path fill="#090BA6" d="M365.928 182.634c-.786.299-2.017.687-2.718.24-5.257-3.348-10.398-1.34-15.984.052 5.756-4.956 12.083-4.35 18.702-.292z"></path>
	<path fill="#0605A2" d="M541.974 182.6c-5.616-.008-11.423-.32-17.668-.649 5.612-3.747 11.57-2.935 17.668.649z"></path>
	<path fill="#090BA6" d="M738.36 807.04a161.88 161.88 0 014.562-14.838c-1.194 4.771-2.734 9.692-4.562 14.838zM708.98 181.583c-4.632.346-9.437.368-14.68.366 4.415-3.121 9.416-2.895 14.68-.366z"></path>
	<path fill="#2525AD" d="M756.926 239.658c-1.75-.959-3.661-2.204-5.397-3.792 1.861.94 3.55 2.223 5.397 3.792zM761.298 244.123c-3.058 1.107-3.89-.9-4.26-3.823 1.379.93 2.742 2.242 4.26 3.823z"></path>
	<path fill="#0E0EAB" d="M303.635 236.932a19.285 19.285 0 01-3.694 3.732c.884-1.286 2.138-2.445 3.694-3.732zM281.616 278.872a15.558 15.558 0 01-3.614 2.816c.842-.995 2.073-1.846 3.614-2.816z"></path>
	<path fill="#090BA6" d="M734.35 813.948a19.78 19.78 0 012.442-4.86c-.475 1.558-1.318 3.12-2.442 4.86zM693.586 181.908c-.878 1.231-2.101 2.506-3.693 3.758.87-1.254 2.11-2.484 3.693-3.758z"></path>
	<path fill="#03039D" d="M255.788 802.43c.673 1.063 1.411 2.472 2.164 4.268-.69-1.05-1.394-2.486-2.164-4.269z"></path>
	<path fill="#090BA6" d="M713.301 184.272c-1.261-.396-2.658-1.093-4.15-2.125 1.274.386 2.645 1.105 4.15 2.125z"></path>
	<path fill="#0605A2" d="M519.669 184.983c-.298 1.122-.88 2.401-1.84 3.497.267-1.236.911-2.289 1.84-3.497z"></path>
	<path fill="#2525AD" d="M751.188 235.11c-.805-.162-1.812-.504-2.65-1.226.93.094 1.689.57 2.65 1.226zM748.133 233.082a6.711 6.711 0 01-2.994-.871c.906-.034 1.832.325 2.994.871z"></path>
	<path fill="#0E0EAB" d="M272.705 286.105c-.475.873-1.245 1.85-2.384 2.855.45-.899 1.27-1.825 2.384-2.855zM297.363 242.79c-.03.902-.357 1.968-1.047 3.116.008-.93.379-1.94 1.047-3.116z"></path>
	<path fill="#03039D" d="M258.558 302.975c-.232 1.414-.761 3.026-1.668 4.682.205-1.465.787-2.975 1.668-4.682z"></path>
	<path fill="#0605A2" d="M523.625 181.947c-.474.635-1.263 1.343-2.426 2.03.454-.668 1.283-1.312 2.426-2.03z"></path>
	<path fill="#090BA6" d="M748.345 789.052c.478-.61 1.26-1.314 2.42-1.995-.454.65-1.285 1.276-2.42 1.995z"></path>
	<path fill="#03039D" d="M717.358 830.029c.48-.612 1.268-1.3 2.43-1.966-.458.645-1.29 1.267-2.43 1.966zM258.999 809.34c.616.494 1.29 1.302 1.924 2.485-.648-.474-1.257-1.322-1.924-2.485z"></path>
	<path fill="#090BA6" d="M743.44 792.11c.507-.609 1.317-1.346 2.521-2.05-.476.661-1.347 1.29-2.521 2.05zM614.657 181.102c-.51.63-1.342 1.243-2.533 1.789.497-.647 1.354-1.227 2.533-1.79z"></path>
	<path fill="#0E0EAB" d="M275.588 282.887c-.338.62-.955 1.334-1.913 2.06.317-.646.976-1.306 1.913-2.06z"></path>
	<path fill="#090BA6" d="M611.545 182.851c-.195.59-.677 1.286-1.53 1.935.166-.641.704-1.234 1.53-1.935z"></path>
	<path fill="#0605A2" d="M544.165 184.521c-.603-.141-1.34-.554-2.077-1.329.648.112 1.294.585 2.077 1.33z"></path>
	<path fill="#090BA6" d="M732.261 816.858c.213-.803.675-1.79 1.498-2.787-.175.86-.712 1.732-1.498 2.787z"></path>
	<path fill="#03039D" d="M261.655 813.54c.693.458 1.475 1.228 2.207 2.365-.74-.439-1.43-1.245-2.207-2.364z"></path>
	<path fill="#090BA6" d="M751.36 787.045c.24-.559.767-1.21 1.659-1.785-.214.615-.794 1.153-1.66 1.785zM345.56 183.873c-.168.595-.617 1.31-1.43 2.002.141-.643.646-1.262 1.43-2.002z"></path>
	<path fill="#03039D" d="M765.315 772.94c.18-.837.62-1.848 1.426-2.876-.146.889-.655 1.794-1.426 2.875z"></path>
	<path fill="#090BA6" d="M722 826.19c.5-.376 1-.753 1.836-1.136-.2.539-.737 1.084-1.563 1.536-.29-.094-.273-.4-.273-.4z"></path>
	<path fill="#03039D" d="M769.386 766.034c-.098-.459.079-1.085.565-1.847.11.47-.09 1.075-.565 1.847zM768.354 767.996c-.092-.452.085-1.071.57-1.824.105.464-.097 1.06-.57 1.824zM767.295 769.934c-.066-.422.116-1.028.591-1.77.082.438-.13 1.012-.59 1.77zM263.759 816.383c.298.064.677.379 1.116.962-.305-.06-.67-.385-1.116-.962zM263.6 294.935c.063.472-.149 1.088-.71 1.736-.09-.51.172-1.05.71-1.736z"></path>
	<path fill="#0E0EAB" d="M277.392 281.596c-.107.373-.498.844-1.242 1.292.085-.414.52-.804 1.242-1.292z"></path>
	<path fill="#03039D" d="M260.705 299.074c.062.424-.13 1.026-.619 1.76-.076-.44.145-1.011.619-1.76zM259.618 300.975c.098.463-.081 1.088-.577 1.842-.11-.474.095-1.077.577-1.842zM711.366 833.182c.178-.324.67-.71 1.506-1.074-.168.352-.68.682-1.506 1.074zM715.34 831.135c.172-.298.648-.667 1.45-1.06-.166.313-.657.65-1.45 1.06zM257.974 807.313c.269.186.581.667.946 1.458-.266-.18-.584-.672-.946-1.458zM713.369 832.183c.17-.317.652-.705 1.474-1.09-.16.342-.662.68-1.474 1.09z"></path>
	<path fill="#090BA6" d="M726.356 823.133c-.07-.218.124-.547.602-.963.077.226-.13.54-.602.963z"></path>
	<path fill="#03039D" d="M721.748 826.272c.252-.081.235.224.24.376-.106.282-.217.41-.57.622-.136-.25-.028-.583.33-.998z"></path>
	<path fill="#090BA6" d="M725.33 824.126c-.061-.206.14-.536.625-.96.068.217-.148.527-.626.96zM729.336 820.112c-.061-.21.143-.533.624-.955.065.215-.146.53-.624.955z"></path>
	<path fill="#03039D" d="M260.871 812.347c.225-.066.542.156.915.674-.237.069-.53-.159-.915-.674z"></path>
	<path fill="#090BA6" d="M727.356 822.133c-.07-.22.125-.548.604-.962.076.227-.131.54-.604.962z"></path>
	<path fill="#03039D" d="M720.326 828.082c-.057-.216.166-.523.677-.9.06.222-.169.517-.677.9z"></path>
	<path fill="#090BA6" d="M728.356 821.132c-.073-.219.118-.548.59-.967.079.225-.124.54-.59.967zM737.284 809.053c-.16-.204-.021-.495.39-.883.082.167-.04.466-.39.883zM367.167 183.666c-.207.083-.555-.087-1.019-.528.215-.09.547.093 1.019.528z"></path>
	<path fill="#03039D" d="M261.623 297.829c.113.234-.04.578-.456 1.034-.113-.233.04-.578.456-1.034zM262.482 296.702c.145.33-.028.677-.495 1.11-.137-.307.02-.7.495-1.11zM264.567 293.771c.113.257-.059.608-.515 1.065-.112-.252.058-.612.515-1.065zM264.894 293.165c.285.074.404.294.522.514-.133.032-.265.064-.611.074-.214-.022-.078-.443.089-.588z"></path>
	<path fill="#090BA6" d="M369.04 185.69c-.207.039-.503-.2-.881-.72.209-.041.501.202.881.72z"></path>
	<path fill="#03039D" d="M545.09 185.675c-.213.058-.526-.16-.915-.666.221-.061.52.165.916.666z"></path>
	<path fill="#090BA6" d="M609.585 184.785c.067.25-.17.593-.715 1.033-.07-.248.17-.595.715-1.033z"></path>
	<path fill="#0E0EAB" d="M298.416 241.68c.12.264-.03.633-.497 1.051-.135-.281.047-.613.497-1.05zM299.412 240.661c.114.272-.04.64-.519 1.026-.132-.298.06-.613.52-1.026z"></path>
	<path fill="#090BA6" d="M685.233 225.84c-.243.122-.232-.34-.232-.57 0-.231.418-.438.645-.494.094.276-.039.608-.413 1.063zM689.433 185.717c.14.267.005.631-.425 1.085-.147-.269.002-.628.425-1.085z"></path>
	<path fill="#03039D" d="M634.182 186.617c-.237.086-.567-.125-.954-.635.249-.086.555.126.954.635z"></path>
	<path fill="#090BA6" d="M713.943 184.844c.054.166.026.647.037.887-.208-.058-.426-.357-.523-.933.12-.278.431-.12.486.046zM753.543 785.365c-.063-.196.07-.458.326-.554.123.166-.132.489-.326.554z"></path>
	<path fill="#03039D" d="M764.336 774.175c-.094-.22.077-.565.512-1.031.095.221-.077.564-.512 1.03z"></path>
	<path fill="#090BA6" d="M346.662 182.896c.062.218-.143.537-.633.931-.069-.227.148-.528.633-.931z"></path>
	<path fill="#03039D" d="M633.411 185.356a.453.453 0 01-.566-.233c.168-.128.496.059.566.233z"></path>
	<path fill="#F9F7FF" d="M746.952 266.161c1.067 6.642 3.057 13.284 3.064 19.927.174 149.529.11 299.058.178 448.587.004 8.613-.069 17.18-6.008 24.04-3.33 3.848-7.626 6.858-12.263 10.236-5.552.388-10.328 1.13-15.103 1.132-124.366.053-248.731.034-373.096-.008-3.629-.001-7.257-.387-10.477-.745 2.546-.296 4.683-.441 7.56-.636-12.462-7.697-17.777-18.36-17.779-31.82-.022-145.807-.017-291.614-.06-437.42-.001-3.133-.605-6.261-.729-9.4-.445-11.342 1.799-21.755 10.27-30.124 1.746-1.725 2.891-4.058 4.511-6.397-3.072-.527-5.175-.888-6.878-1.368 3.548-.119 6.695-.12 9.841-.12 0 0 .027-.029-.02.434-.027 11.098-.244 21.742.148 32.363.128 3.445 1.853 6.832 2.847 10.245 0 0 .034-.065.071.206.329.492.62.715.91.937.448.564.895 1.127 1.801 2.063 8.278 4.561 15.263 3.987 21.407-1.349.572-.47 1.144-.94 1.986-1.955 1.472-4.735 3.474-8.879 3.718-13.124.588-10.203.352-20.454.449-30.686 0 0-.2-.116.227-.027 18.106.09 35.784.09 53.463.091 0 0-.06-.183.112.26.275 2.072.45 3.702.47 5.333.12 9.904-.118 19.829.484 29.702.202 3.3 2.52 6.471 3.87 9.701.464.559.927 1.117 1.877 2.045 9.453 5.036 16.788 3.697 22.682-3.684 0 0 .037-.176.272-.452 1.157-4.22 2.721-8.14 2.876-12.114.385-9.87.126-19.766.126-29.788 1.69-.161 2.967-.283 4.707-.336 16.155-.038 31.846-.146 47.95-.197 1.472.13 2.53.203 3.587.275 0 0-.005.01-.014.48-.012 11.442-.111 22.418.066 33.388.034 2.096 1.16 4.175 1.782 6.261 0 0-.265 0-.275.444.464 1.141.94 1.84 1.414 2.537.422.596.843 1.192 1.7 2.157 1.38.892 2.324 1.416 3.269 1.94 0 0 .008-.12.191.202 6.16 2.246 12.015 2.902 17.405-1.321 6.09-4.151 7.542-10.219 7.38-17.137-.221-9.422-.173-18.85.352-28.75 18.974-.384 37.355-.296 55.74.262.002 10.592-.358 20.733.175 30.827.213 4.026 2.399 7.948 3.687 11.918 0 0 .018-.099.096.217 1.204 1.228 2.33 2.14 3.458 3.052 0 0 .171.012.26.224.463.329.838.447 1.213.565 0 0 .025-.13.201.192 6.595 2.353 12.761 2.711 18.103-2.386.333.01.586-.128 1.09-.788a48.073 48.073 0 001.898-3.166s-.096-.028.224-.221c.744-2.953 1.5-5.709 1.536-8.473.14-10.801.054-21.605.052-32.408 0 0-.01.04.442-.144 16.345-.183 32.239-.183 48.503-.183 0 10.474-.167 20.415.093 30.345.088 3.372 1.252 6.715 1.925 10.071 0 0-.02.476.09 1.03 1.684 2.055 3.258 3.557 4.833 5.059 0 0 .022-.09.181.23 6.554 3.627 12.831 3.961 18.92-.426.941-.802 1.882-1.605 3.09-3.007 1.255-4.507 2.916-8.383 3.103-12.33.498-10.525.362-21.081.479-31.626 0 0 .14.146.652.102 5.68 1.103 10.847 2.251 16.014 3.399 0 0 .154.063.426.283.92.564 1.567.907 2.214 1.25 0 0 .007-.063.185.199 1.037.856 1.897 1.45 2.756 2.044.431.54.862 1.08 1.675 1.979.925.948 1.468 1.537 2.012 2.127 0 0 .098-.147.102.155.395.741.787 1.181 1.179 1.62 0 0 .035-.123.057.174.353.8.684 1.303 1.015 1.806M447.991 425.393c-.317-.183-.635-.365-1.287-1.168-7.847-4.374-15.08-3.393-20.87 3.134 0 0-.113.454-.036.533 0 0 .01-.11-.604.309-.718 3.355-2.049 6.709-2.061 10.067-.15 40.902-.141 81.804-.038 122.706.008 3.056-.493 5.393-3.176 6.916 0 0-.027-.09-.489.032 0 0-.402.258-1.073.41-5.81 3.157-11.607 6.336-17.43 9.466-8.394 4.51-11.267 12.695-7.121 20.394 4.214 7.826 12.306 9.905 20.9 5.42 3.053-1.594 6.165-3.074 9.265-3.762-.227 1.45-.634 2.898-.65 4.35-.078 6.874-1.813 14.066 3.6 19.871 0 0-.102 0 .087.526.307.193.614.387.926.462 0 0-.116.022.068.55.318.173.636.346.963.436 0 0-.078.031.334.65 8.537 3.641 14.81 2.535 19.887-3.563 0 0 .036.121.674-.278.712-2.643 1.962-5.271 2.042-7.934.33-10.944.306-21.898.213-32.773 0 0 .118.176.552.05 0 0 .307-.331.986-.504 6.532-3.42 13.034-6.901 19.627-10.199 1.14-.57 2.67-.355 3.83.233.04.757.08 1.515-.055 3.196.013 7.126-.08 14.254.069 21.376.145 6.928.539 13.85.768 21.412.08.418.16.836.187 1.963 2.545 2.702 4.627 6.263 7.728 7.935 7.517 4.056 21.36-.652 21.054-13.872-.438-18.972-.014-37.966.166-56.949.015-1.591.49-4.003 1.566-4.626 7.54-4.368 15.295-8.367 23.293-12.65.107 1.886.181 3.193.125 5.43.047 24.01.094 48.02.025 72.773 1.354 10.37 15.093 14.979 23.54 8.221.199-.27.398-.54.507-.853 0 0-.01.1.516-.09.196-.307.392-.615.46-.93 0 0 .02.125.544-.067.188-.313.375-.625.467-.937 0 0 .029.091.581-.215.162-.603.324-1.206.402-1.812 0 0 .03.077.724-.317.404-2.418 1.153-4.835 1.16-7.254.086-28.251.039-56.503.111-84.754.005-1.882.693-3.763.983-5.667 0 0 .02.08.504-.006 0 0 .437-.224 1.116-.353 7.55-3.907 15.101-7.814 22.592-10.782.03 33.089.028 66.177.128 99.266.013 4.579-.31 9.387 3.568 12.886 0 0-.099-.002.087.528.309.193.618.387.917.48 0 0-.096.034.178.626.926.527 1.85 1.054 2.812 1.457 0 0-.128.007.337.64 5.249 1.966 10.293 2.052 14.81-1.66 0 0 .017.116.583-.018.225-.283.45-.567.639-.7 0 0 .152.026.511-.112 0 0 .192-.334.822-.602 1.074-2.243 2.147-4.486 3.4-7.65.059-.826.171-1.654.17-2.48-.036-40.174-.081-80.347.489-120.822 9.544-5.354 19.09-10.705 28.633-16.063 8.27-4.643 10.866-12.32 6.815-20.128-3.766-7.259-11.812-9.245-20.109-5.118-5.292 2.633-10.692 5.05-15.966 6.63.001-7.884.266-15.782-.136-23.645-.147-2.88-1.874-5.678-2.904-8.44 0 0 .077.003-.09-.536-.295-.22-.591-.442-.997-1.093-.187-.267-.443-.394-1.157-1.028-7.61-3.903-13.535-3.403-18.846 1.618 0 0-.027-.087-.56.14-.288.462-.576.925-.862 1.502 0 0 .076.085-.599.278-.874 2.782-2.448 5.55-2.503 8.349-.258 13.236-.1 26.48-.526 40.3-7.264 4.003-14.508 8.042-21.815 11.964-.913.49-2.158.363-3.101-.404.009-17.37.258-34.748-.176-52.108-.087-3.498-2.763-6.933-4.34-10.473 0 0-.042-.114-.33-.61-.689-.341-1.378-.682-2.084-.936 0 0 .084-.03-.234-.559-.588-.14-1.176-.278-2.029-.773-.219-.25-.488-.33-1.644-.55-2.365.038-4.73.075-7.806.082-5.664 1.998-9.29 5.744-10.323 12.783.058 20.67.117 41.34.03 62.855.044.988-.174 2.081.173 2.947 1.857 4.629-.434 6.631-4.387 8.565-6.46 3.16-12.599 6.977-19.52 10.68-.428.116-.857.234-1.346.066 0 0-.288.041-.255-.905-.014-27.696.04-55.392-.145-83.087-.019-2.763-1.494-5.517-2.191-8.187 0 0 .067-.117-.066-.709-.413-.42-.827-.839-1.26-1.18 0 0 .08.005-.097-.516-.307-.181-.613-.362-.92-.469 0 0 .07-.023-.243-.556-.571-.221-1.143-.443-1.717-.527 0 0 .133-.034-.27-.655-5.077-1.97-10.095-2.575-14.838.676 0 0-.015-.104-.622.018-.577.497-1.154.993-1.84 1.56 0 0-.125.033-.614.244-.54.735-1.08 1.47-1.957 2.851-.59 1.49-1.179 2.981-1.95 5.386-.104 1.66-.295 3.321-.296 4.982-.026 27.492-.041 54.984-.02 82.475.004 4.488.196 8.975-.233 13.905-7.748 4.276-15.482 8.575-23.27 12.777-.578.313-1.533-.07-2.18-1.057.008-36.922.05-73.843-.057-110.764-.007-2.5-1.142-4.995-1.768-7.363 0 0 .127-.032.018-.647-.362-.47-.723-.941-1.11-1.332 0 0 .084-.001-.077-.533-.3-.197-.598-.394-.914-.486 0 0 .106-.012-.072-.541z"></path>
	<path fill="#D1CEF9" d="M329.74 252.284c2.105.36 4.208.722 7.28 1.249-1.62 2.339-2.765 4.672-4.511 6.397-8.471 8.369-10.715 18.782-10.27 30.125.124 3.138.728 6.266.729 9.399.043 145.806.038 291.613.06 437.42.002 13.46 5.317 24.123 17.779 31.82-2.877.195-5.014.34-7.553.59-.401.105-.332.04-.501-.319-1.72-.541-3.27-.724-4.777-.89.044.019.004.105-.192-.216-.914-.48-1.633-.64-2.308-.776.044.025-.007.111-.29-.13-.963-.457-1.644-.674-2.291-.894.034-.003-.004.055-.096-.288-1.48-1.126-2.868-1.91-4.255-2.694-1.846-1.984-3.692-3.968-5.582-6.647-.45-1.248-.859-1.8-1.187-2.348.08.005.02.153.076-.194-.348-.835-.752-1.325-1.067-1.813.089 0 .041.172.1-.264-.588-13.343-1.784-26.25-1.796-39.158-.133-142.127-.078-284.253-.118-426.38 0-2.076-.551-4.152-.921-6.575-.007-.81.062-1.273.49-1.811 1.2-3.747 2.04-7.42 2.95-11.086.072.005.186.09.515-.021.507-.747.686-1.381.865-2.016 0 0 .058.134.183.11.236-.089.349-.153.46-.217l-.372-.607c.545-.83 1.09-1.66 1.911-2.915.53-.618.706-.867.805-1.17 0 0 .115.006.358-.182.753-.72 1.263-1.251 1.773-1.783.61-.41 1.22-.819 2.193-1.585.7-.426 1.035-.496 1.763-.526 1.578-.712 2.762-1.463 3.986-2.148.04.068-.108.119.294.172 1.449-.447 2.495-.947 3.522-1.491-.02-.044-.004-.138-.004-.138z"></path>
	<path fill="#D1CEF8" d="M288.92 765.354s0 .393.158.794c.335.693.573.919.873 1.08.175.503.35 1.005.83 1.916.587.614.869.82 1.151 1.028 0 0 .011-.136-.016.18.332.805.691 1.294 1.05 1.783-.026.303.069.563.645 1.18 3.367 3.84 6.373 7.277 9.38 10.715.902.461 1.805.923 2.71 1.822.494.634.985.831 1.476 1.028 0 0-.108.054.004.287.694.427 1.277.621 1.86.816 0 0-.035.024.08.249.437.374.758.524 1.079.674 0 0-.15.011-.017.246.748.406 1.362.576 1.976.746 0 0-.113.034.017.276.739.411 1.348.58 1.958.75 0 0-.1.026.039.27.752.399 1.367.553 1.981.707 0 0-.118.01.01.32 1.794.72 3.46 1.13 5.143 1.532.016-.008.042-.034.116.322 6.332 1.544 12.589 3.755 18.85 3.768 100.707.215 201.415.141 302.123.158 23.969.004 47.937.099 71.906.152-.503.87-1.006 1.74-2.087 2.896-.772.691-.965 1.096-1.159 1.5-1.6 1.563-3.202 3.125-5.171 5.054-.664.526-.973.556-1.715.469-4.66 1.595-8.899 3.176-13.477 4.853-.804.048-1.268 0-2.032-.335-1.281-.395-2.263-.598-3.246-.598-43.39-.014-86.779-.02-130.168.029-1.404.001-2.807.563-4.59.947-1.152.027-1.923-.029-2.992-.373-2.116-.397-3.934-.602-5.752-.602-75.83-.015-151.659-.005-227.488-.043-2.465-.001-4.933-.452-7.395-.737-3.985-.46-7.965-.957-11.948-1.439a56.695 56.695 0 01-2.58-1.073 120.096 120.096 0 01-2.436-1.399s-.3-.317-.63-.681a1887.58 1887.58 0 00-7.486-7.595c-.626-1.463-1.252-2.926-2.051-5.075-1.032-3.452-1.892-6.217-2.494-9.246.386-1.753.514-3.243.895-4.942.08-1.387-.093-2.565-.284-4.213.006-7.167.029-13.865.406-20.598 1.73-.346 3.106-.655 4.54-.636a27.55 27.55 0 002.404 3.736c1.03 1.839 1.79 3.461 2.552 5.084 0 0 .026-.111.025.215.326.885.651 1.444.977 2.003z"></path>
	<path fill="#2525AD" d="M325.47 767.194s.05-.086.169.235c.859.464 1.6.608 2.34.75 0 0 .04-.085.204.23 1.69.516 3.214.716 4.74.915 0 0-.07.065-.077.111 3.621.253 7.25.639 10.878.64 124.365.042 248.73.06 373.096.008 4.775-.002 9.55-.744 14.75-1.05-1.65 1.343-3.626 2.834-5.839 3.758-1.288.538-2.956.197-4.453.197-127.574.006-255.147.025-382.72-.057-5.546-.004-11.355-.184-15.378-5.657-.092-.366-.014-.447.368-.389.895.142 1.408.226 1.921.31z"></path>
	<path fill="#0E0EAB" d="M308.18 277.961c-.069.464-.138.927-.187 2.2.017 153.353 0 305.897.08 458.441.003 3.929 1.062 7.857 1.447 11.945l-.545.477c-.989-4.618-2.837-9.236-2.841-13.856-.15-151.199-.138-302.398-.034-453.597.002-3.467 1.327-6.933 2.43-10.117.148 1.691-.1 3.1-.35 4.507z"></path>
	<path fill="#FCFCFE" d="M285.098 757.836c-.693-1.063-1.387-2.127-2.264-3.883-.735-4.777-1.765-8.86-1.767-12.944-.084-138.452-.07-276.904-.07-415.356v-4.562l-1.212-.056c-.595 5.533-1.691 11.064-1.707 16.599-.135 49.15-.088 98.299-.078 147.449.017 89.968.045 179.936.068 269.905-.023 6.697-.046 13.395-.068 20.957.016 1.919.031 2.973.047 4.027-.128 1.49-.256 2.98-.713 4.27-.38-24.838-.472-49.478-.472-74.119.002-126.368.027-252.735.044-379.103.058-.767.115-1.534.136-3.067.82-4.036 1.678-7.306 2.535-10.576 0 0-.054-.193.174-.353.68-1.091 1.133-2.023 1.585-2.955l.952.23c0 5.9 0 11.798-.09 18.157-.1 135.725-.152 270.99.007 406.253.007 6.377 1.886 12.752 2.893 19.127z"></path>
	<path fill="#0605A2" d="M276.512 331.099c.377 126.289.352 252.656.35 379.024 0 24.64.093 49.281.213 74.383.932 3.228 1.792 5.993 2.686 9.119-.835-.235-2.304-.695-2.471-1.445-.935-4.182-2.186-8.433-2.19-12.661-.107-147.757-.09-295.513-.04-443.27.001-1.69.69-3.381 1.452-5.15z"></path>
	<path fill="#090BA6" d="M285.366 758.052c-1.275-6.591-3.154-12.966-3.161-19.343-.159-135.264-.107-270.528.268-406.255.729-.464 1.094-.465 1.459-.466l.062 304.455c.004 20.997-.41 42.004.112 62.988.522 20.988-3.073 42.273 3.842 63.29-.791-1.208-1.553-2.83-2.582-4.669z"></path>
	<path fill="#0605A2" d="M547.963 812.883c.771.056 1.542.112 3.158.136 46.509-.07 92.174-.106 137.84-.143.464.049.928.097 2.115.077 2.948-.572 5.174-1.076 7.516-1.44l.347.419c-4.427 1.008-8.853 2.892-13.281 2.898-124.386.157-248.773.155-373.16.004-4.61-.005-9.218-1.761-13.425-2.952 5.015.206 9.626 1.04 14.241 1.059 28.624.122 57.249.074 85.873.057 49.592-.028 99.184-.075 148.776-.115z"></path>
	<path fill="#E9EAFC" d="M714.565 797.931c-24.232.169-48.2.074-72.169.07-100.708-.017-201.416.057-302.123-.158-6.261-.013-12.518-2.224-18.462-3.71 4.595.38 8.877 1.06 13.159 1.739.77.058 1.541.116 3.153.143 5.506-.06 10.171-.09 14.836-.118 1.742.056 3.483.113 6.117.132 29.222-.07 57.552-.103 85.883-.136.465.055.93.11 2.202.13 9.138-.066 17.467-.1 25.797-.132 4.387.054 8.774.109 14.087.128 13.254-.066 25.584-.096 37.914-.127 1.742.055 3.484.11 6.092.127a904.29 904.29 0 017.907-.129c1.092.056 2.185.111 4.144.13 9.864-.067 18.86-.097 27.857-.128a87.61 87.61 0 004.141.137c27.865-.068 54.862-.101 81.86-.134 2.398.056 4.796.113 8.102.133 17.253-.064 33.6-.092 49.948-.12-.06.6-.121 1.2-.445 2.023z"></path>
	<path fill="#3637B7" d="M773.634 279.365c.308 62.7.348 125.694.356 188.688.01 91.326-.003 182.65-.024 274.44-.333-1.27-.926-3.004-.927-4.737-.042-151.218-.04-302.436-.024-453.653 0-1.482.22-2.963.619-4.738zM688.648 836.645c-100.194.307-200.68.33-301.167.346-27.497.004-54.993-.016-82.95-.05 1.279-.33 3.017-.901 4.755-.902 124.876-.042 249.752-.04 374.628-.024 1.48 0 2.96.225 4.734.63z"></path>
	<path fill="#2525AD" d="M687.98 291.797c-.684-3.06-1.848-6.403-1.936-9.775-.26-9.93-.093-19.87-.093-30.345-16.264 0-32.158 0-48.485.191.665-.825 1.75-2.71 2.862-2.727 13.94-.2 27.885-.239 41.825-.078 5.81.067 6.834 1.396 6.839 7.175.008 10.955-.003 21.91-.221 33.416-.484.716-.656.952-.732 1.258-.015.196-.03.393-.058.885z"></path>
	<path fill="#F9F7FF" d="M547.665 812.595c-49.294.328-98.886.375-148.478.403-28.624.017-57.249.065-85.873-.057-4.615-.02-9.226-.853-14.212-1.428-.374-.119-.683-.07-.82-.211-.522-.207-.909-.271-1.295-.336-.46-.324-.92-.648-1.643-1.082 3.72.372 7.701.869 11.686 1.33 2.462.284 4.93.735 7.395.736 75.83.038 151.659.028 227.488.043 1.818 0 3.636.205 5.752.602z"></path>
	<path fill="#3637B7" d="M605.01 251.98l-55.618-.265c.89-.905 2.245-2.58 3.62-2.595 16.306-.183 32.616-.14 48.925-.06.978.004 1.952.825 3.053 1.882.125.616.02 1.039.02 1.039z"></path>
	<path fill="#0E0EAB" d="M431.964 295.815c-1.388-2.806-3.706-5.977-3.908-9.277-.602-9.873-.363-19.798-.484-29.702-.02-1.631-.195-3.261-.557-5.292.802 1.074 2.693 2.501 2.779 4.03.35 6.255-.116 12.557.222 18.814.379 7.016 1.301 14.003 1.948 21.427zM464.002 251.841l-4.243.405c0 10.022.259 19.917-.126 29.788-.155 3.974-1.719 7.893-2.926 12.04-.063-13.195.114-26.593.47-39.986.027-1.01 1.334-1.986 2.648-3.135.87-.341 1.052-.59 1.15-.9.759-.006 1.518-.012 2.653.293.375.707.374 1.101.374 1.495z"></path>
	<path fill="#090BA6" d="M464.466 251.91c-.464-.463-.463-.857-.459-1.546 15.692-.308 31.379-.322 47.533-.053.465.637.464.991.463 1.345-15.691.108-31.382.216-47.537.254z"></path>
	<path fill="#0E0EAB" d="M372.877 251.188c.326 10.223.562 20.474-.026 30.677-.244 4.245-2.246 8.389-3.683 12.842-.438.017-.868-.323-.81-.463 5.072-12.296 1.638-25.187 2.706-37.755.152-1.79.912-3.53 1.813-5.3z"></path>
	<path fill="#090BA6" d="M605.013 252.45c-.004-.47.102-.892.094-1.108.618 1.235 1.75 2.674 1.786 4.14.184 7.616-.155 15.249.175 22.855.232 5.362 1.239 10.691 1.853 16.447-1.334-3.558-3.52-7.48-3.733-11.506-.533-10.094-.173-20.235-.175-30.827z"></path>
	<path fill="#03039D" d="M444.665 795.601c-28.037.325-56.367.358-85.16.344.767-.353 1.997-.923 3.23-.926 26.563-.05 53.126-.039 79.69-.022.649 0 1.297.204 2.24.604zM656.666 795.603c-26.704.325-53.701.358-81.163.343.767-.354 1.997-.926 3.229-.928 25.231-.05 50.463-.037 75.694-.018.649 0 1.297.203 2.24.603z"></path>
	<path fill="#090BA6" d="M636.609 252.083c.399 10.724.486 21.528.345 32.329-.036 2.764-.792 5.52-1.531 8.523-.335-12.249-.387-24.74-.325-37.231.006-1.182.725-2.361 1.51-3.62z"></path>
	<path fill="#03039D" d="M426.756 250.881c-17.445.361-35.123.36-53.274.377.516-.404 1.502-1.189 2.492-1.193 16.384-.059 32.769-.023 49.153.017.466.001.93.285 1.63.8zM718.26 251.21c.288 10.358.424 20.914-.074 31.44-.187 3.946-1.848 7.822-3.064 12.015.76-14.232 1.747-28.75 3.138-43.454z"></path>
	<path fill="#0605A2" d="M283.951 331.521c-.384.468-.75.469-1.389.472-.274-5.896-.274-11.795-.274-17.693l-.952-.23c-.452.931-.904 1.863-1.685 2.955-.937-2.977.211-4.915 4.32-5.652 0 6.705 0 13.193-.02 20.148z"></path>
	<path fill="#03039D" d="M714.708 795.62c-16.045.316-32.393.344-49.204.324.104-.337.673-.882 1.24-.88 15.887.056 31.775.167 47.964.557z"></path>
	<path fill="#090BA6" d="M342.964 294.663c-1-2.99-2.725-6.376-2.853-9.821-.392-10.621-.175-21.265-.167-32.367.376 1.24.94 2.936 1.039 4.658.715 12.366 1.337 24.736 1.981 37.53z"></path>
	<path fill="#0E0EAB" d="M456.124 294.434c-5.533 7.547-12.868 8.886-22.05 3.913 2.42.266 5.14 1.545 7.667 1.239 3.535-.428 6.956-1.957 10.365-3.185 1.306-.47 2.443-1.408 4.018-1.967z"></path>
	<path fill="#0605A2" d="M517.886 291.686c-.671-1.655-1.797-3.734-1.83-5.83-.178-10.97-.079-21.946-.063-33.388.348 1.24.921 2.941.98 4.66.382 11.373.655 22.75.913 34.558z"></path>
	<path fill="#03039D" d="M524.665 795.6c-12.036.323-24.366.353-37.159.337.266-.349.998-.915 1.727-.912 11.713.052 23.425.176 35.432.575z"></path>
	<path fill="#090BA6" d="M366.748 296.97c-5.745 5.31-12.73 5.884-20.738 1.388 6.797 2.125 13.65 1.985 20.738-1.389zM711.79 297.725c-5.886 4.648-12.163 4.314-18.763.696 6.102 1.003 12.392 1.81 18.762-.696zM339.866 251.662c-3.03.383-6.176.384-9.724.503-.401.119-.416.213-.758.234-1.416.5-2.49.98-3.563 1.46 0 0 .147-.05-.205-.055-.767.03-1.183.065-1.599.1 3.46-3.839 11.037-5.103 15.849-2.242zM631.808 297.028c-4.944 5.13-11.11 4.771-17.77 2.427 5.789.282 11.763.411 17.77-2.427zM303.084 783.74c-3.1-3.148-6.106-6.585-9.276-10.345 3.014 3.137 6.192 6.597 9.276 10.345z"></path>
	<path fill="#03039D" d="M570.666 795.6c-8.704.323-17.7.353-27.16.337 3.557-.35 7.574-.842 11.6-.911 5.085-.087 10.177.172 15.56.574z"></path>
	<path fill="#0E0EAB" d="M735.503 254.152c-5.34-.776-10.507-1.924-16.1-3.08 5.646-2.215 11.197-1.22 16.1 3.08z"></path>
	<path fill="#03039D" d="M472.664 795.6c-8.036.324-16.365.357-25.159.342 7.98-.243 16.422-.439 25.159-.343z"></path>
	<path fill="#0605A2" d="M541.104 298.057c-4.953 4.242-10.808 3.586-17.027 1.35 5.368-.665 10.979-1.017 17.027-1.35z"></path>
	<path fill="#03039D" d="M334.895 795.493c-4.207-.3-8.489-.98-13.158-1.717-.388-.057-.414-.031-.572-.232-.625-.399-1.092-.598-1.558-.797 5.07.79 10.142 1.578 15.288 2.746z"></path>
	<path fill="#0605A2" d="M281.702 799.208c2.633 2.228 5.017 4.638 7.517 7.381-2.511-2.177-5.138-4.688-7.517-7.38z"></path>
	<path fill="#FCFCFE" d="M308.54 277.887c-.11-1.334.138-2.742.368-4.51.119-.767.257-1.174.501-1.98.106-.397.15-.607.15-.607s.077-.275.217-.506c.19-.59.238-.948.286-1.306 0 0 .127-.142.326-.393.476-.765.753-1.277 1.03-1.79-.84 3.673-1.679 7.345-2.878 11.092z"></path>
	<path fill="#03039D" d="M352.667 795.606c-4.373.32-9.038.35-14.163.33 4.316-.239 9.094-.43 14.163-.33z"></path>
	<path fill="#0605A2" d="M279.188 317.399c-.468 3.248-1.325 6.518-2.236 10.177.58-3.125 1.213-6.64 2.236-10.177z"></path>
	<path fill="#090BA6" d="M692.921 297.845c-1.604-1.165-3.178-2.667-4.785-4.497.382-.341.796-.355 1.63-.127.613.522.87.723 1.19.846.665 1.147 1.33 2.294 1.965 3.778z"></path>
	<path fill="#0E0EAB" d="M312.038 755.92c-1.017-1.4-2.035-2.802-3.058-4.55-.005-.346.358-.664.674-.57.601.544.886.996 1.171 1.447 0 0 .048-.171.002.152.292.828.63 1.332.968 1.836 0 0 .06-.148-.009.164.038.715.145 1.118.252 1.521z"></path>
	<path fill="#0605A2" d="M512.417 251.713c-.413-.411-.412-.765-.409-1.382 1.269.184 2.534.632 3.897 1.369-.96.216-2.017.143-3.488.013z"></path>
	<path fill="#03039D" d="M538.695 795.612c-2.084.309-4.43.34-7.215.324 2.025-.232 4.488-.417 7.215-.324z"></path>
	<path fill="#F9F7FF" d="M318.684 763.383c1.247.478 2.635 1.262 3.796 2.307-.644.275-1.063.288-1.481.302-.725-.768-1.45-1.535-2.315-2.609z"></path>
	<path fill="#090BA6" d="M612.529 298.112c-1.227-.56-2.354-1.471-3.607-2.685a13.258 13.258 0 013.607 2.685z"></path>
	<path fill="#E9EAFC" d="M319.614 792.677c.46.269.926.468 1.535.876a18.336 18.336 0 01-4.976-1.391c.052-.352.222-.336.98-.213 1.242.255 1.9.403 2.556.55 0 0-.088.109-.095.178z"></path>
	<path fill="#F9F7FF" d="M323.818 253.98c.615-.111 1.03-.146 1.76-.243-.873.689-2.057 1.44-3.449 1.903.217-.72.64-1.153 1.063-1.586 0 0 .426 0 .626-.075z"></path>
	<path fill="#090BA6" d="M322.805 254.032c-.036.455-.46.887-1.069 1.568-.521.319-.857.389-1.43.565.546-.648 1.33-1.402 2.5-2.133zM634.816 293.106c-.143.93-.665 1.861-1.471 2.946.174-.879.634-1.912 1.471-2.946z"></path>
	<path fill="#0E0EAB" d="M740.913 257.925c-.86-.219-1.72-.813-2.781-1.648.793.263 1.787.768 2.781 1.648zM744.692 262.032c-.637-.216-1.18-.805-1.854-1.67.563.247 1.255.772 1.854 1.67zM311.49 266.8c-.349.508-.626 1.02-1.144 1.7.183-.954.606-2.073 1.318-3.02.196.584.104.998.01 1.411 0 0-.113-.085-.184-.09z"></path>
	<path fill="#0605A2" d="M704.59 808.058c.322.1.63.071 1.148-.175a10.561 10.561 0 01-2.578 1.95c-.36-.056-.39-.09-.212-.353a18.753 18.753 0 011.643-1.422z"></path>
	<path fill="#0E0EAB" d="M737.943 255.695c-.62.02-1.266-.324-2.108-.86.564.038 1.322.268 2.108.86z"></path>
	<path fill="#0605A2" d="M523.854 298.852c-.854-.181-1.798-.705-2.91-1.51.83.2 1.824.684 2.91 1.51zM290.14 807.622c.583.066 1.24.452 2.07 1.069-.551-.096-1.274-.422-2.07-1.069zM518.964 294.73c-.463-.33-.938-1.028-1.43-2.04.46.348.94 1.009 1.43 2.04z"></path>
	<path fill="#090BA6" d="M317.678 258.042c-.201.49-.711 1.021-1.467 1.683.222-.46.69-1.051 1.467-1.683z"></path>
	<path fill="#03039D" d="M319.702 792.173c-.65.179-1.307.03-2.294-.253.542-.115 1.415-.094 2.294.253z"></path>
	<path fill="#2525AD" d="M321.16 766.245c.257-.267.676-.28 1.413-.213.318.082.356.024.405.216.048.192.188.58.188.58l-.118.12a5.86 5.86 0 01-1.887-.703z"></path>
	<path fill="#FCFCFE" d="M312.264 756.06c-.333-.543-.44-.946-.558-1.665.397.235.805.787 1.22 1.717-.142.28-.29.184-.662-.052z"></path>
	<path fill="#090BA6" d="M288.925 764.999c-.33-.204-.656-.763-1.039-1.651.31.212.677.754 1.04 1.651zM292.955 771.806c-.348-.16-.707-.65-1.106-1.45.338.167.716.644 1.106 1.45z"></path>
	<path fill="#FCFCFE" d="M312.004 266.78c-.236-.302-.144-.716.008-1.445.06-.317.452-.463.655-.517.023.58-.156 1.215-.663 1.962z"></path>
	<path fill="#E9EAFC" d="M307.064 786.65c-.378.033-.87-.164-1.186-.52.473-.008.773.142 1.186.52zM308.854 787.751c-.396.037-.979-.157-1.688-.643.416-.057.959.177 1.688.643zM311.99 789.637c-.445.091-1.06-.08-1.798-.559.46-.107 1.044.095 1.797.559zM313.958 790.67c-.434.084-1.043-.085-1.787-.555.448-.1 1.03.1 1.787.554zM315.977 791.646c-.437.101-1.052-.053-1.809-.503.45-.114 1.041.067 1.81.503z"></path>
	<path fill="#0E0EAB" d="M746.93 265.83c-.309-.172-.64-.675-1.057-1.477.287.183.661.664 1.057 1.477zM745.901 263.833c-.413-.09-.805-.53-1.288-1.262.376.11.843.512 1.288 1.262z"></path>
	<path fill="#0605A2" d="M700.802 810.76c-.41.394-.82.789-1.546 1.177-.317-.005-.548-.285-.406-.571.721-.42 1.3-.553 1.896-.665l.056.06z"></path>
	<path fill="#090BA6" d="M315.636 260.001c.121.267-.055.516-.499.841-.034-.18.123-.493.5-.84z"></path>
	<path fill="#0605A2" d="M702.812 809.796c-.445.381-.902.743-1.685 1.035-.325-.07-.363-.11-.202-.363.722-.41 1.284-.568 1.846-.725 0 0 .03.034.041.053z"></path>
	<path fill="#E9EAFC" d="M711.318 802.354c-.068-.21.125-.614.629-1.16.084.228-.142.597-.63 1.16z"></path>
	<path fill="#0605A2" d="M297.114 811.217c.26-.186.646-.122 1.107.228-.277.198-.629.11-1.107-.228z"></path>
	<path fill="#0E0EAB" d="M309.814 269.114c.2.222.151.58-.134 1.065-.196-.226-.155-.578.134-1.065z"></path>
	<path fill="#090BA6" d="M613.817 298.97c-.29.166-.665.048-1.09-.358.302-.168.653-.047 1.09.357zM343.856 295.963c-.208.045-.498-.178-.863-.669.21-.045.495.178.863.669z"></path>
	<path fill="#2525AD" d="M690.863 293.832c-.227.112-.484-.09-.787-.593.159-.03.427.164.787.593z"></path>
	<path fill="#090BA6" d="M688.259 290.852c-.144-.246.028-.482.504-.727.135.23-.03.479-.504.727z"></path>
	<path fill="#0E0EAB" d="M309.373 270.619c.187.171.142.38.067.457-.298-.142-.52-.36-.742-.578.162-.017.325-.034.675.12z"></path>
	<path fill="#FCFCFE" d="M313.014 264.253c.25 0 .375.202.499.404-.112.064-.225.128-.533.229-.197.036-.092-.43.034-.633z"></path>
	<path fill="#090BA6" d="M460.755 250.143c.122.22-.06.469-.54.755-.134-.222.044-.478.54-.755zM291.86 769.908c-.21.057-.492-.15-.845-.627.21-.058.491.153.845.627zM289.875 766.996c-.224.07-.462-.155-.677-.692.276-.103.49.132.677.692z"></path>
	<path fill="#3637B7" d="M773.777 745.119c.153-.078.173.376.153.603-.174.072-.342-.07-.468-.243-.026-.036.104-.185.315-.36z"></path>
	<path fill="#E9EAFC" d="M310.106 788.646c-.227.11-.548-.04-.983-.435.22-.105.555.035.983.435z"></path>
	<path fill="#0DBB7D" d="M614.856 617.96c-1.074 2.244-2.147 4.487-3.666 6.697-.543.236-.64.504-.736.773 0 0-.152-.026-.438-.088-.497.257-.708.577-.92.896 0 0-.016-.117-.373-.154-5.21.33-10.065.698-14.918 1.065 0 0 .128-.007.038-.292-1.06-.777-2.027-1.27-2.996-1.764 0 0 .096-.035.008-.25-.397-.407-.706-.6-1.015-.794 0 0 .099.002.113-.36-.642-6.051-1.83-11.738-1.867-17.432-.19-30.052-.062-60.105-.163-90.157-.006-1.715-1.056-3.427-1.62-5.14-7.55 3.907-15.101 7.814-23.112 11.643-.687.12-.913.319-1.14.518 0 0-.02-.081-.383-.04-1.13 1.654-2.561 3.265-2.567 4.882-.106 31.048-.044 62.097-.017 93.146 0 0-.03-.077-.278.072-.401.755-.554 1.362-.707 1.969 0 0-.03-.091-.246.004a4.738 4.738 0 00-.775 1.034s-.018-.125-.222-.03c-.396.406-.59.716-.782 1.025 0 0 .009-.1-.198-.111-.407.32-.606.653-.806.986-7.94 6.636-21.68 2.028-22.698-9.022.424-24.214.517-47.749.565-71.284 0-.58-.519-1.16-.796-1.74l-.255-4.5c-7.998 4.283-15.753 8.282-23.293 12.65-1.076.623-1.55 3.035-1.566 4.626-.18 18.983-.604 37.977-.166 56.949.306 13.22-13.537 17.928-21.054 13.872-3.1-1.672-5.183-5.233-7.422-8.594.305-16.787.305-32.913.305-49.325l-1.39 1.3c-1.35.149-2.88-.065-4.02.504-6.593 3.298-13.095 6.78-20.096 10.141-.63.191-.79.44-.95.688 0 0-.12-.176-.392-.002-.794 6.367-1.454 12.552-1.801 18.754-.414 7.385-.558 14.785-.82 22.178 0 0-.035-.121-.347-.053-6.351 4.64-13.094 4.288-19.987 2.876 0 0 .078-.03-.025-.248a4.65 4.65 0 00-1.044-.747s.116-.022.021-.228c-.403-.398-.711-.59-1.02-.782 0 0 .102 0 .092-.356-.64-6.466-1.236-12.58-1.921-18.683-.227-2.022-.683-4.018-1.034-6.026-3.085 1.532-6.197 3.012-9.25 4.605-8.594 4.486-16.686 2.407-20.9-5.419-4.146-7.7-1.273-15.884 7.12-20.394 5.824-3.13 11.622-6.309 17.893-9.4.666-.157.87-.377 1.073-.598 0 0 .027.09.385.123 4.58-.22 4.74-3.177 4.735-6.38-.03-17.653-.11-35.307.01-52.96.183-26.934.516-53.867.786-80.8 0 0-.01.11.153.076.281-.088.4-.144.519-.2l-.333-.648c5.477-6.18 12.71-7.16 20.824-2.217.578.756.888.942 1.198 1.128 0 0-.106.012-.016.224.388.41.687.608.985.806 0 0-.083 0-.072.292.41.747.808 1.202 1.207 1.656 0 0-.127.032-.178.45-.065 38.329-.101 76.238-.017 114.148.003 1.497 1.147 2.992 1.76 4.488.78.06 1.735.443 2.314.13 7.787-4.202 15.521-8.501 23.814-12.873.702-.694.995-1.292.995-1.89.027-32.183.037-64.368-.003-96.552-.002-1.246-.526-2.492-.806-3.738.59-1.491 1.179-2.981 2.26-4.83.98-1.14 1.467-1.922 1.954-2.704 0 0 .125-.033.5.048.941-.534 1.507-1.148 2.072-1.763 0 0 .015.104.393.125 5.207-.012 10.035-.044 14.863-.076 0 0-.133.034-.008.268.719.43 1.312.628 1.906.826 0 0-.071.023.032.235.4.4.697.59.994.778 0 0-.08-.005-.063.295.47.69.923 1.08 1.376 1.472 0 0-.067.117-.173.507.174 2.847.692 5.304.698 7.762.063 26.293.014 52.587.12 78.88.008 1.731 1.037 3.459 1.591 5.188 0 0 .288-.04.537.239.747.017 1.246-.246 1.744-.51 6.274-3.539 12.413-7.356 18.873-10.516 3.953-1.934 6.244-3.936 4.387-8.565-.347-.866-.13-1.959.165-3.681.426-20.926.523-41.118.572-61.31.001-.58-.51-1.162-.783-1.744.876-6.106 4.502-9.852 10.814-11.572 3.104.385 5.56.492 8.23.872 1.115.388 2.017.504 2.919.62 0 0-.084.03.015.308.823.57 1.548.862 2.273 1.154 0 0 .042.114-.005.54.833 4.525 2.388 8.612 2.471 12.729.304 15.115.063 30.242.199 45.362.015 1.669 1.137 3.327 1.745 4.99 1.091-.159 2.336-.032 3.249-.522 7.307-3.922 14.551-7.961 22.401-12.362.898-2.268 1.412-4.129 1.49-6.008.59-14.143 1.096-28.29 1.628-42.436 0 0-.076-.085.262-.073.578-.572.817-1.157 1.057-1.741 0 0 .027.087.366.08 6.332-4.045 12.596-2.868 18.897-.966.324-.011.58.116.913.864.436.705.727.928 1.018 1.151 0 0-.077-.004-.076.368.653 9.244 1.27 18.119 1.982 26.986.152 1.9.644 3.774.98 5.66 5.351-2.513 10.751-4.93 16.043-7.562 8.297-4.127 16.343-2.14 20.109 5.118 4.05 7.809 1.455 15.485-6.815 20.128-9.542 5.358-19.089 10.709-29.258 16.483-.771 1.393-1.046 2.366-1.046 3.338-.014 38.906-.011 77.811.04 116.717 0 1.25.517 2.498.793 3.747z"></path>
	<path fill="#02B269" d="M425.501 427.992c.037 26.724-.296 53.657-.48 80.591-.12 17.653-.04 35.307-.009 52.96.006 3.203-.156 6.16-4.782 6.373 2.372-1.549 2.873-3.886 2.865-6.942-.103-40.902-.112-81.804.038-122.706.012-3.358 1.343-6.712 2.368-10.276zM451.905 547.522c-.68-1.032-1.824-2.527-1.827-4.024-.084-37.91-.048-75.82.025-114.212.669 2.014 1.804 4.51 1.811 7.01.108 36.92.065 73.841-.01 111.226z"></path>
	<path fill="#03AB5B" d="M586.273 511.43c.594 1.243 1.644 2.955 1.65 4.67.1 30.052-.027 60.105.163 90.157.037 5.694 1.225 11.38 1.854 17.48-3.878-3.185-3.556-7.993-3.57-12.572-.099-33.089-.097-66.177-.097-99.736z"></path>
	<path fill="#02B269" d="M559.43 620.912c-.373-30.852-.435-61.9-.329-92.95.006-1.616 1.437-3.227 2.608-4.87.032 1.852-.656 3.733-.66 5.615-.073 28.251-.026 56.503-.112 84.754-.007 2.42-.756 4.836-1.507 7.451z"></path>
	<path fill="#03AB5B" d="M506.683 519.6c-.57-1.255-1.6-2.983-1.606-4.714-.107-26.293-.058-52.587-.12-78.88-.007-2.458-.525-4.915-.75-7.807.854 2.325 2.33 5.079 2.348 7.842.185 27.695.131 55.39.128 83.56z"></path>
	<path fill="#02B269" d="M560.897 488.527c-.682-1.2-1.804-2.858-1.82-4.527-.135-15.12.106-30.247-.198-45.362-.083-4.117-1.638-8.204-2.424-12.692 1.577 3.077 4.253 6.512 4.34 10.01.434 17.36.185 34.737.102 52.571z"></path>
	<path fill="#00A145" d="M614.945 617.5c-.365-.789-.881-2.038-.883-3.287-.05-38.906-.053-77.811-.04-116.717 0-.972.276-1.945.74-3.187.362 39.904.407 80.077.444 120.25 0 .827-.112 1.655-.26 2.941zM478.06 433.52c.372.789.896 2.035.898 3.281.04 32.184.03 64.369.003 96.553 0 .597-.293 1.195-.728 1.667-.383-4.612-.575-9.1-.579-13.587-.021-27.491-.006-54.983.02-82.475.001-1.66.192-3.321.387-5.44z"></path>
	<path fill="#03AB5B" d="M589.254 427.759c-.195 14.049-.7 28.196-1.29 42.339-.08 1.88-.593 3.74-1.273 5.719-.378-13.133-.536-26.377-.278-39.613.055-2.798 1.63-5.567 2.84-8.445z"></path>
	<path fill="#00A145" d="M532.076 544.477c.342.114.862.695.86 1.275-.047 23.535-.14 47.07-.506 70.913-.325-23.703-.372-47.713-.354-72.188z"></path>
	<path fill="#02B269" d="M449.54 623.054c-.057-7.194.087-14.594.5-21.979.348-6.202 1.008-12.387 1.902-18.792.266 10.739.29 21.693-.04 32.637-.08 2.663-1.33 5.29-2.361 8.134z"></path>
	<path fill="#00A145" d="M532.083 434.454c.352.115.863.697.862 1.277-.049 20.192-.146 40.384-.5 60.887-.323-20.358-.382-41.028-.362-62.164z"></path>
	<path fill="#03AB5B" d="M477.205 571.359c.456-.706.817-1.044 1.485-1.669 0 16.412 0 32.538-.279 48.97-.359-.113-.439-.53-.447-1.74.064-13.24.082-25.693.01-38.144-.008-1.594-.484-3.185-.744-4.777-.04-.757-.08-1.515-.025-2.64z"></path>
	<path fill="#02B269" d="M423.964 599.428c.343 1.586.8 3.582 1.026 5.604.685 6.104 1.28 12.217 1.905 18.732-5.387-5.498-3.652-12.69-3.574-19.563.016-1.453.423-2.9.643-4.773z"></path>
	<path fill="#0DBB7D" d="M477.142 574.461c.348 1.13.824 2.721.833 4.315.071 12.451.053 24.903.017 37.826-.33-6.453-.723-13.375-.868-20.303-.15-7.122-.056-14.25.018-21.838z"></path>
	<path fill="#03AB5B" d="M615.029 459.525c-.375-1.42-.867-3.293-1.02-5.194-.71-8.867-1.328-17.742-1.969-27.022 1.017 2.427 2.744 5.226 2.891 8.105.402 7.863.137 15.76.098 24.11z"></path>
	<path fill="#02B269" d="M429.093 626.386c6.687 1.102 13.43 1.455 19.842-3.169-4.825 6.013-11.1 7.12-19.842 3.169z"></path>
	<path fill="#03AB5B" d="M609.978 424.64c-6.106-1.58-12.37-2.757-18.746 1.278 5.016-5.004 10.942-5.504 18.746-1.278zM594.037 627.466c4.621-.684 9.475-1.052 14.743-1.368-4.217 3.736-9.261 3.65-14.743 1.368zM499.993 423.552c-4.627.343-9.455.375-14.714.38 4.417-3.265 9.435-2.66 14.714-.38z"></path>
	<path fill="#02B269" d="M550.992 423.014c-2.456-.107-4.912-.214-7.66-.585 2.072-.3 4.437-.336 7.222-.065.42.309.464.617.457.625-.007.007-.019.025-.019.025z"></path>
	<path fill="#03AB5B" d="M590.984 625.389c.832.197 1.8.69 2.84 1.53-.852-.18-1.777-.707-2.84-1.53zM482.122 425.634c-.243.677-.73 1.458-1.54 2.276.216-.7.756-1.435 1.54-2.276z"></path>
	<path fill="#02B269" d="M556.27 425.12c-.582-.043-1.307-.335-2.122-.949.599.02 1.288.36 2.122.95z"></path>
	<path fill="#03AB5B" d="M484.634 423.875c-.261.554-.827 1.168-1.713 1.667.256-.613.833-1.11 1.713-1.667z"></path>
	<path fill="#02B269" d="M553.966 423.642c-.743.149-1.645.033-2.76-.355-.214-.273-.202-.29.061-.287.434-.011.605-.026.776-.04.588.14 1.176.279 1.923.682z"></path>
	<path fill="#03AB5B" d="M508.625 519.885c-.175.182-.674.445-1.39.57.21-.254.638-.372 1.39-.57zM590.643 425.961c.027.471-.212 1.056-.79 1.571-.052-.532.236-.995.79-1.57zM501.935 424.69c-.437.07-1.03-.128-1.748-.628.448-.08 1.02.14 1.748.629zM504.365 427.44c-.387-.094-.84-.485-1.3-1.215.406.081.82.5 1.3 1.216z"></path>
	<path fill="#02B269" d="M450.218 428.593c-.344-.147-.742-.602-1.14-1.388.363.139.724.61 1.14 1.388zM558.375 622.997c-.123-.454.03-1.06.472-1.815.128.456-.034 1.059-.472 1.815zM555.323 625.997c-.053-.272.146-.604.598-.903.053.303-.146.572-.598.903zM425.99 427.185c.268.042.379.258.49.475a1.713 1.713 0 01-.558.16c-.201-.007-.089-.461.068-.635z"></path>
	<path fill="#0DBB7D" d="M551.91 422.783c-.038.191-.209.206-.636.209-.256-.011-.3-.32-.303-.475.319-.243.588-.162.94.266z"></path>
	<path fill="#02B269" d="M426.914 624.334c.214-.07.522.121.923.578-.215.072-.522-.122-.923-.578z"></path>
	<path fill="#03AB5B" d="M609.38 626.171c-.072-.252.14-.572.654-.904.079.27-.146.554-.654.904z"></path>
	<path fill="#02B269" d="M427.91 625.345c.221-.087.535.09.948.525-.22.085-.538-.088-.948-.525z"></path>
	<path fill="#03AB5B" d="M610.633 625.36a.454.454 0 01.242-.569c.13.167-.062.5-.242.57zM589.933 624.314c.216-.071.525.122.927.58-.216.072-.525-.122-.927-.58z"></path>
	<path fill="#02B269" d="M556.336 625.088c-.07-.214.124-.524.584-.925.07.215-.125.523-.584.925zM557.34 624.092c-.076-.217.11-.53.56-.939.078.218-.11.53-.56.94zM452.45 582.26c-.056-.185.104-.434.394-.538.13.144-.177.475-.394.538zM419.661 567.86c.027.16-.176.381-.507.461-.126-.14.276-.4.507-.46zM562.294 523.078c-.016-.156.21-.355.557-.411.121.143-.316.367-.557.41z"></path>
	<path fill="#03AB5B" d="M612.02 426.708c-.207.046-.498-.177-.88-.667.206-.045.502.176.88.667z"></path>
	<path fill="#02B269" d="M449.057 426.686c-.217.068-.516-.13-.896-.593.218-.067.517.13.896.593z"></path>
	<path fill="#03AB5B" d="M503.03 425.71c-.209.071-.506-.117-.906-.555.204-.068.51.113.906.554z"></path>
	<path fill="#02B269" d="M448.08 425.657c-.221.08-.531-.107-.941-.552.217-.077.535.105.94.552z"></path>
	<path fill="#FCFCFE" d="M310.884 751.811c-.344-.015-.629-.467-1.048-1.17-.7-4.182-1.76-8.11-1.762-12.039-.08-152.544-.064-305.088-.005-458.095.35 1.614.9 3.69.901 5.766.04 142.127-.015 284.253.118 426.38.012 12.908 1.208 25.815 1.796 39.158z"></path>
	<path fill="#F9F7FF" d="M332.753 768.965c-1.356.16-2.88-.04-4.614-.573 1.343-.151 2.894.032 4.614.573zM326.223 253.913c.671-.533 1.745-1.013 3.18-1.47-.685.523-1.731 1.023-3.18 1.47zM323.548 766.885c-.382-.058-.522-.445-.605-.634.599.028 1.28.245 2.244.702-.23.158-.744.074-1.639-.068zM327.784 767.86c-.545.177-1.286.033-2.19-.455.557-.186 1.276-.026 2.19.454z"></path>
	<path fill="#FCFCFE" d="M311.851 753.888c-.394-.157-.732-.661-1.113-1.49.36.165.765.655 1.113 1.49z"></path>
	<path fill="#CDCAF4" d="M278.422 754.952c-.377-89.933-.405-179.901-.422-269.87-.01-49.15-.057-98.299.078-147.448.016-5.535 1.112-11.066 1.707-16.599l1.213.056v4.562c0 138.452-.015 276.904.069 415.356.002 4.084 1.032 8.167 1.71 12.615-1.249.673-2.625.982-4.355 1.328z"></path>
	<path fill="#F9F7FF" d="M688.661 812.59c-45.366.323-91.031.36-137.16.346.94-.352 2.342-.914 3.746-.915 43.39-.048 86.779-.043 130.168-.03.983.001 1.965.204 3.246.599zM702.948 809.48c-.739.42-1.3.578-2.041.968-.757.365-1.336.498-2.173.778a94.63 94.63 0 01-7.319 1.63c3.856-1.608 8.095-3.19 12.755-4.784-.068.372-.557.759-1.222 1.408z"></path>
	<path fill="#CDCAF4" d="M278.3 779.763c-.269-.845-.284-1.9-.283-3.348.19.783.363 1.96.283 3.348z"></path>
</svg></svg></g></g><defs><clipPath id="SvgjsClipPath1069"><rect width="1000" height="1000" x="0" y="0" rx="200" ry="200"></rect></clipPath></defs></svg>